<svg xmlns="http://www.w3.org/2000/svg" width="512" height="512" viewBox="0 0 512 512"><path fill="#FC0" d="M512 472c0 22.1-17.9 40-40 40H40c-22.1 0-40-17.9-40-40V40C0 17.9 17.9 0 40 0h432c22.1 0 40 17.9 40 40v432z"/><path fill="#FFF" d="M0 275.2h512V347H0z"/><path fill="#FFC200" d="M0 293.9h512v2H0zM0 310.2h512v2H0zM0 328.6h512v2H0z"/><path fill="none" d="M0 323.7h512v2H0z"/><text transform="translate(126.453 328.673)" fill="#D40511" font-family="'Arial-ItalicMT'" font-size="37.5">eCOMMERCE</text><g fill="#D40511"><path d="M198.9 224.5c4.5-9.1 8.3-17 10-20.4 8.1-16.3-.3-39.1-28.3-39.1h-92l-15.9 32.3h85.8c6.7 0 9.1 1.4 7.1 5.6-2 4.1-6.2 12.7-7.4 15.1-1.4 2.9-2.1 6.5 2.4 6.5h38.3z"/><path d="M141.6 227.5c-4.5 0-4.9-3-3.8-5.3.9-1.9 6.9-14.1 8.1-16.4 1.4-2.9 1-5.9-5.9-5.9h-38.9l-29.3 59.6H149c21.1 0 36.4-7.6 46.9-28.9.5-1 1-2.1 1.5-3.1h-55.8zM206.3 227.5l-15.7 32.1h47.9l15.8-32.1h-48zM273.7 227.5L258 259.6h47.9l15.8-32.1h-48zM323.2 224.5l29.2-59.5h-47.9l-15.8 32.3h-19.6L285 165h-48l-29.1 59.5h115.3zM364.6 165h48l-29.3 59.5h-47.9l29.2-59.5zM333.9 227.5h107.3l-15.7 32h-79.1c-16.5 0-21.8-12.6-15.9-24.8.5-1.3 3.4-7.2 3.4-7.2zM80 227.5l-4.6 9.5H0v-9.5h80zM74.5 238.8l-4.7 9.5H0v-9.5h74.5zM68.9 250.1l-4.7 9.5H0v-9.5h68.9zM512 237h-68.8l4.6-9.5H512zM512 248.3h-74.4l4.6-9.5H512zM512 259.6h-80l4.7-9.5H512z"/></g></svg>